<?xml version="1.0" encoding="UTF-8" standalone="no"?>
<svg
   xmlns:dc="http://purl.org/dc/elements/1.1/"
   xmlns:cc="http://creativecommons.org/ns#"
   xmlns:rdf="http://www.w3.org/1999/02/22-rdf-syntax-ns#"
   xmlns:svg="http://www.w3.org/2000/svg"
   xmlns="http://www.w3.org/2000/svg"
   xmlns:xlink="http://www.w3.org/1999/xlink"
   width="500"
   height="500"
   viewBox= "0 0 500 500"
   version="1.1"
   id="svg8">
  <title
     id="title1">Tree Top View</title>
  <defs
     id="defs1" />
  <metadata
     id="metadata1">
    <rdf:RDF>
      <cc:Work
         rdf:about="">
        <dc:format>image/svg+xml</dc:format>
        <dc:type
           rdf:resource="http://purl.org/dc/dcmitype/StillImage" />
        <dc:title>Tree Top View</dc:title>
        <dc:subject>
          <rdf:Bag>
            <rdf:li>tree</rdf:li>
            <rdf:li>plant</rdf:li>
            <rdf:li>nature</rdf:li>
            <rdf:li>landscaping</rdf:li>
          </rdf:Bag>
        </dc:subject>
        <dc:creator>
          <cc:Agent>
            <dc:title>https://github.com/jpenrici/SVG_Image_Tree/tree/master/SVG_Image_Tree_Top_View</dc:title>
          </cc:Agent>
        </dc:creator>
        <cc:license
           rdf:resource="http://creativecommons.org/publicdomain/zero/1.0/" />
        <dc:description>SVG tree image in top view created automatically by algorithm in C++. Leaves are clones of the original figure placed in the upper left corner when SVG is opened in Inkscape.</dc:description>
      </cc:Work>
      <cc:License
         rdf:about="http://creativecommons.org/publicdomain/zero/1.0/">
        <cc:permits
           rdf:resource="http://creativecommons.org/ns#Reproduction" />
        <cc:permits
           rdf:resource="http://creativecommons.org/ns#Distribution" />
        <cc:permits
           rdf:resource="http://creativecommons.org/ns#DerivativeWorks" />
      </cc:License>
    </rdf:RDF>
  </metadata>
  <!--      Created in C++ algorithm       -->
  <!-- Attention: do not modify this code. -->

  <g id="Leaf_Original">
     <path
        id="Leaf_Original_79"
        style="opacity:1.0;fill:#00FF00;stroke:#000000;stroke-width:0.5;stroke-opacity:1"
        d="M -25.000000,0.000000 C -14.174682,6.250000 -14.174682,6.250000 0.000000,0.000000 -14.174682,-6.250000 -14.174682,-6.250000 -25.000000,0.000000 Z" />
  </g>
  <g id="G-Tree ">
     <path
        id="Branch_0"
        style="opacity:1.0;fill:#00FF00;stroke:#000000;stroke-width:0.5;stroke-opacity:1"
        d="M 259.659258,252.588190 C 283.807404,259.058666 283.807404,259.058666 307.955550,265.529142 283.807404,259.058666 283.807404,259.058666 259.659258,252.588190 Z" />
     <path
        id="Branch_1"
        style="opacity:1.0;fill:#00FF00;stroke:#000000;stroke-width:0.5;stroke-opacity:1"
        d="M 271.250368,255.694019 C 295.398514,249.223543 295.398514,249.223543 319.546660,242.753067 295.398514,249.223543 295.398514,249.223543 271.250368,255.694019 Z" />
     <path
        id="Branch_2"
        style="opacity:1.0;fill:#00FF00;stroke:#000000;stroke-width:0.5;stroke-opacity:1"
        d="M 291.534811,250.258819 C 315.682956,256.729295 315.682956,256.729295 339.831102,263.199771 315.682956,256.729295 315.682956,256.729295 291.534811,250.258819 Z" />
     <path
        id="Branch_3"
        style="opacity:1.0;fill:#00FF00;stroke:#000000;stroke-width:0.5;stroke-opacity:1"
        d="M 299.262217,252.329371 C 323.410363,245.858895 323.410363,245.858895 347.558509,239.388419 323.410363,245.858895 323.410363,245.858895 299.262217,252.329371 Z" />
     <path
        id="Branch_4"
        style="opacity:1.0;fill:#00FF00;stroke:#000000;stroke-width:0.5;stroke-opacity:1"
        d="M 308.921475,249.741181 C 326.599145,232.063512 326.599145,232.063512 344.276815,214.385842 326.599145,232.063512 326.599145,232.063512 308.921475,249.741181 Z" />
     <path
        id="Branch_5"
        style="opacity:1.0;fill:#00FF00;stroke:#000000;stroke-width:0.5;stroke-opacity:1"
        d="M 320.235184,238.427473 C 344.383330,231.956997 344.383330,231.956997 368.531475,225.486521 344.383330,231.956997 344.383330,231.956997 320.235184,238.427473 Z" />
     <path
        id="Branch_6"
        style="opacity:1.0;fill:#00FF00;stroke:#000000;stroke-width:0.5;stroke-opacity:1"
        d="M 335.689997,234.286368 C 359.838143,240.756844 359.838143,240.756844 383.986289,247.227320 359.838143,240.756844 359.838143,240.756844 335.689997,234.286368 Z" />
     <path
        id="Branch_7"
        style="opacity:1.0;fill:#00FF00;stroke:#000000;stroke-width:0.5;stroke-opacity:1"
        d="M 359.838143,240.756844 C 383.986289,234.286368 383.986289,234.286368 408.134434,227.815892 383.986289,234.286368 383.986289,234.286368 359.838143,240.756844 Z" />
     <path
        id="Branch_8"
        style="opacity:1.0;fill:#00FF00;stroke:#000000;stroke-width:0.5;stroke-opacity:1"
        d="M 257.071068,257.071068 C 274.748738,274.748737 274.748738,274.748737 292.426407,292.426406 274.748738,274.748737 274.748738,274.748737 257.071068,257.071068 Z" />
     <path
        id="Branch_9"
        style="opacity:1.0;fill:#00FF00;stroke:#000000;stroke-width:0.5;stroke-opacity:1"
        d="M 269.798990,269.798990 C 276.269467,293.947135 276.269467,293.947135 282.739943,318.095281 276.269467,293.947135 276.269467,293.947135 269.798990,269.798990 Z" />
     <path
        id="Branch_10"
        style="opacity:1.0;fill:#00FF00;stroke:#000000;stroke-width:0.5;stroke-opacity:1"
        d="M 275.234191,290.083432 C 292.911860,307.761101 292.911860,307.761101 310.589530,325.438770 292.911860,307.761101 292.911860,307.761101 275.234191,290.083432 Z" />
     <path
        id="Branch_11"
        style="opacity:1.0;fill:#00FF00;stroke:#000000;stroke-width:0.5;stroke-opacity:1"
        d="M 286.547899,301.397140 C 310.696045,307.867616 310.696045,307.867616 334.844191,314.338092 310.696045,307.867616 310.696045,307.867616 286.547899,301.397140 Z" />
     <path
        id="Branch_12"
        style="opacity:1.0;fill:#00FF00;stroke:#000000;stroke-width:0.5;stroke-opacity:1"
        d="M 296.207157,303.985331 C 313.884827,321.663000 313.884827,321.663000 331.562497,339.340669 313.884827,321.663000 313.884827,321.663000 296.207157,303.985331 Z" />
     <path
        id="Branch_13"
        style="opacity:1.0;fill:#00FF00;stroke:#000000;stroke-width:0.5;stroke-opacity:1"
        d="M 321.663002,329.441174 C 328.133479,353.589320 328.133479,353.589320 334.603955,377.737465 328.133479,353.589320 328.133479,353.589320 321.663002,329.441174 Z" />
     <path
        id="Branch_14"
        style="opacity:1.0;fill:#00FF00;stroke:#000000;stroke-width:0.5;stroke-opacity:1"
        d="M 325.804107,344.895988 C 319.333632,369.044133 319.333632,369.044133 312.863156,393.192279 319.333632,369.044133 319.333632,369.044133 325.804107,344.895988 Z" />
     <path
        id="Branch_15"
        style="opacity:1.0;fill:#00FF00;stroke:#000000;stroke-width:0.5;stroke-opacity:1"
        d="M 319.333632,369.044133 C 325.804108,393.192279 325.804108,393.192279 332.274585,417.340424 325.804108,393.192279 325.804108,393.192279 319.333632,369.044133 Z" />
     <path
        id="Branch_16"
        style="opacity:1.0;fill:#00FF00;stroke:#000000;stroke-width:0.5;stroke-opacity:1"
        d="M 252.588191,259.659258 C 259.058667,283.807404 259.058667,283.807404 265.529144,307.955549 259.058667,283.807404 259.058667,283.807404 252.588191,259.659258 Z" />
     <path
        id="Branch_17"
        style="opacity:1.0;fill:#00FF00;stroke:#000000;stroke-width:0.5;stroke-opacity:1"
        d="M 258.799848,282.841478 C 252.329373,306.989624 252.329373,306.989624 245.858898,331.137770 252.329373,306.989624 252.329373,306.989624 258.799848,282.841478 Z" />
     <path
        id="Branch_18"
        style="opacity:1.0;fill:#00FF00;stroke:#000000;stroke-width:0.5;stroke-opacity:1"
        d="M 256.988115,289.602959 C 239.310446,307.280629 239.310446,307.280629 221.632778,324.958299 239.310446,307.280629 239.310446,307.280629 256.988115,289.602959 Z" />
     <path
        id="Branch_19"
        style="opacity:1.0;fill:#00FF00;stroke:#000000;stroke-width:0.5;stroke-opacity:1"
        d="M 251.331261,295.259813 C 244.860786,319.407959 244.860786,319.407959 238.390310,343.556105 244.860786,319.407959 244.860786,319.407959 251.331261,295.259813 Z" />
     <path
        id="Branch_20"
        style="opacity:1.0;fill:#00FF00;stroke:#000000;stroke-width:0.5;stroke-opacity:1"
        d="M 248.743071,304.919072 C 231.065402,322.596742 231.065402,322.596742 213.387733,340.274412 231.065402,322.596742 231.065402,322.596742 248.743071,304.919072 Z" />
     <path
        id="Branch_21"
        style="opacity:1.0;fill:#00FF00;stroke:#000000;stroke-width:0.5;stroke-opacity:1"
        d="M 240.257790,313.404353 C 216.109645,319.874831 216.109645,319.874831 191.961499,326.345308 216.109645,319.874831 216.109645,319.874831 240.257790,313.404353 Z" />
     <path
        id="Branch_22"
        style="opacity:1.0;fill:#00FF00;stroke:#000000;stroke-width:0.5;stroke-opacity:1"
        d="M 224.802977,317.545459 C 200.654831,311.074984 200.654831,311.074984 176.506685,304.604509 200.654831,311.074984 200.654831,311.074984 224.802977,317.545459 Z" />
     <path
        id="Branch_23"
        style="opacity:1.0;fill:#00FF00;stroke:#000000;stroke-width:0.5;stroke-opacity:1"
        d="M 247.411810,259.659258 C 240.941334,283.807404 240.941334,283.807404 234.470859,307.955550 240.941334,283.807404 240.941334,283.807404 247.411810,259.659258 Z" />
     <path
        id="Branch_24"
        style="opacity:1.0;fill:#00FF00;stroke:#000000;stroke-width:0.5;stroke-opacity:1"
        d="M 244.305982,271.250368 C 250.776458,295.398514 250.776458,295.398514 257.246935,319.546659 250.776458,295.398514 250.776458,295.398514 244.305982,271.250368 Z" />
     <path
        id="Branch_25"
        style="opacity:1.0;fill:#00FF00;stroke:#000000;stroke-width:0.5;stroke-opacity:1"
        d="M 246.117715,278.011849 C 239.647240,302.159995 239.647240,302.159995 233.176764,326.308141 239.647240,302.159995 239.647240,302.159995 246.117715,278.011849 Z" />
     <path
        id="Branch_26"
        style="opacity:1.0;fill:#00FF00;stroke:#000000;stroke-width:0.5;stroke-opacity:1"
        d="M 244.047163,285.739256 C 250.517640,309.887401 250.517640,309.887401 256.988116,334.035547 250.517640,309.887401 250.517640,309.887401 244.047163,285.739256 Z" />
     <path
        id="Branch_27"
        style="opacity:1.0;fill:#00FF00;stroke:#000000;stroke-width:0.5;stroke-opacity:1"
        d="M 251.811735,314.717030 C 245.341260,338.865176 245.341260,338.865176 238.870784,363.013322 245.341260,338.865176 245.341260,338.865176 251.811735,314.717030 Z" />
     <path
        id="Branch_28"
        style="opacity:1.0;fill:#00FF00;stroke:#000000;stroke-width:0.5;stroke-opacity:1"
        d="M 247.670631,330.171844 C 229.992962,347.849514 229.992962,347.849514 212.315293,365.527184 229.992962,347.849514 229.992962,347.849514 247.670631,330.171844 Z" />
     <path
        id="Branch_29"
        style="opacity:1.0;fill:#00FF00;stroke:#000000;stroke-width:0.5;stroke-opacity:1"
        d="M 236.356923,341.485553 C 229.886447,365.633699 229.886447,365.633699 223.415972,389.781844 229.886447,365.633699 229.886447,365.633699 236.356923,341.485553 Z" />
     <path
        id="Branch_30"
        style="opacity:1.0;fill:#00FF00;stroke:#000000;stroke-width:0.5;stroke-opacity:1"
        d="M 242.928932,257.071068 C 225.251264,274.748738 225.251264,274.748738 207.573595,292.426409 225.251264,274.748738 225.251264,274.748738 242.928932,257.071068 Z" />
     <path
        id="Branch_31"
        style="opacity:1.0;fill:#00FF00;stroke:#000000;stroke-width:0.5;stroke-opacity:1"
        d="M 238.686292,261.313709 C 214.538147,267.784186 214.538147,267.784186 190.390001,274.254664 214.538147,267.784186 214.538147,267.784186 238.686292,261.313709 Z" />
     <path
        id="Branch_32"
        style="opacity:1.0;fill:#00FF00;stroke:#000000;stroke-width:0.5;stroke-opacity:1"
        d="M 231.924811,263.125443 C 214.247142,280.803113 214.247142,280.803113 196.569474,298.480783 214.247142,280.803113 214.247142,280.803113 231.924811,263.125443 Z" />
     <path
        id="Branch_33"
        style="opacity:1.0;fill:#00FF00;stroke:#000000;stroke-width:0.5;stroke-opacity:1"
        d="M 220.611103,274.439152 C 214.140628,298.587297 214.140628,298.587297 207.670152,322.735443 214.140628,298.587297 214.140628,298.587297 220.611103,274.439152 Z" />
     <path
        id="Branch_34"
        style="opacity:1.0;fill:#00FF00;stroke:#000000;stroke-width:0.5;stroke-opacity:1"
        d="M 218.022913,284.098410 C 224.493390,308.246555 224.493390,308.246555 230.963866,332.394701 224.493390,308.246555 224.493390,308.246555 218.022913,284.098410 Z" />
     <path
        id="Branch_35"
        style="opacity:1.0;fill:#00FF00;stroke:#000000;stroke-width:0.5;stroke-opacity:1"
        d="M 221.128742,295.689520 C 214.658266,319.837666 214.658266,319.837666 208.187791,343.985811 214.658266,319.837666 214.658266,319.837666 221.128742,295.689520 Z" />
     <path
        id="Branch_36"
        style="opacity:1.0;fill:#00FF00;stroke:#000000;stroke-width:0.5;stroke-opacity:1"
        d="M 216.987638,311.144333 C 223.458114,335.292479 223.458114,335.292479 229.928591,359.440624 223.458114,335.292479 223.458114,335.292479 216.987638,311.144333 Z" />
     <path
        id="Branch_37"
        style="opacity:1.0;fill:#00FF00;stroke:#000000;stroke-width:0.5;stroke-opacity:1"
        d="M 223.458114,335.292479 C 216.987639,359.440624 216.987639,359.440624 210.517164,383.588770 216.987639,359.440624 216.987639,359.440624 223.458114,335.292479 Z" />
     <path
        id="Branch_38"
        style="opacity:1.0;fill:#00FF00;stroke:#000000;stroke-width:0.5;stroke-opacity:1"
        d="M 240.340742,252.588191 C 216.192597,259.058668 216.192597,259.058668 192.044451,265.529146 216.192597,259.058668 216.192597,259.058668 240.340742,252.588191 Z" />
     <path
        id="Branch_39"
        style="opacity:1.0;fill:#00FF00;stroke:#000000;stroke-width:0.5;stroke-opacity:1"
        d="M 240.340742,247.411810 C 216.192596,240.941335 216.192596,240.941335 192.044450,234.470861 216.192596,240.941335 216.192596,240.941335 240.340742,247.411810 Z" />
     <path
        id="Branch_40"
        style="opacity:1.0;fill:#00FF00;stroke:#000000;stroke-width:0.5;stroke-opacity:1"
        d="M 234.545187,245.858896 C 210.397041,252.329373 210.397041,252.329373 186.248896,258.799851 210.397041,252.329373 210.397041,252.329373 234.545187,245.858896 Z" />
     <path
        id="Branch_41"
        style="opacity:1.0;fill:#00FF00;stroke:#000000;stroke-width:0.5;stroke-opacity:1"
        d="M 227.783706,247.670630 C 210.106037,265.348300 210.106037,265.348300 192.428368,283.025970 210.106037,265.348300 210.106037,265.348300 227.783706,247.670630 Z" />
     <path
        id="Branch_42"
        style="opacity:1.0;fill:#00FF00;stroke:#000000;stroke-width:0.5;stroke-opacity:1"
        d="M 216.469998,258.984339 C 209.999522,283.132485 209.999522,283.132485 203.529047,307.280630 209.999522,283.132485 209.999522,283.132485 216.469998,258.984339 Z" />
     <path
        id="Branch_43"
        style="opacity:1.0;fill:#00FF00;stroke:#000000;stroke-width:0.5;stroke-opacity:1"
        d="M 213.881808,268.643597 C 220.352284,292.791743 220.352284,292.791743 226.822761,316.939888 220.352284,292.791743 220.352284,292.791743 213.881808,268.643597 Z" />
     <path
        id="Branch_44"
        style="opacity:1.0;fill:#00FF00;stroke:#000000;stroke-width:0.5;stroke-opacity:1"
        d="M 216.987636,280.234707 C 234.665306,297.912376 234.665306,297.912376 252.342976,315.590046 234.665306,297.912376 234.665306,297.912376 216.987636,280.234707 Z" />
     <path
        id="Branch_45"
        style="opacity:1.0;fill:#00FF00;stroke:#000000;stroke-width:0.5;stroke-opacity:1"
        d="M 228.301345,291.548415 C 234.771822,315.696561 234.771822,315.696561 241.242298,339.844706 234.771822,315.696561 234.771822,315.696561 228.301345,291.548415 Z" />
     <path
        id="Branch_46"
        style="opacity:1.0;fill:#00FF00;stroke:#000000;stroke-width:0.5;stroke-opacity:1"
        d="M 242.928932,242.928933 C 225.251261,225.251264 225.251261,225.251264 207.573590,207.573596 225.251261,225.251264 225.251261,225.251264 242.928932,242.928933 Z" />
     <path
        id="Branch_47"
        style="opacity:1.0;fill:#00FF00;stroke:#000000;stroke-width:0.5;stroke-opacity:1"
        d="M 238.686291,238.686292 C 214.538145,232.215818 214.538145,232.215818 190.389999,225.745343 214.538145,232.215818 214.538145,232.215818 238.686291,238.686292 Z" />
     <path
        id="Branch_48"
        style="opacity:1.0;fill:#00FF00;stroke:#000000;stroke-width:0.5;stroke-opacity:1"
        d="M 225.163329,235.062826 C 201.015184,241.533304 201.015184,241.533304 176.867038,248.003781 201.015184,241.533304 201.015184,241.533304 225.163329,235.062826 Z" />
     <path
        id="Branch_49"
        style="opacity:1.0;fill:#00FF00;stroke:#000000;stroke-width:0.5;stroke-opacity:1"
        d="M 217.435922,237.133379 C 199.758254,254.811049 199.758254,254.811049 182.080585,272.488720 199.758254,254.811049 199.758254,254.811049 217.435922,237.133379 Z" />
     <path
        id="Branch_50"
        style="opacity:1.0;fill:#00FF00;stroke:#000000;stroke-width:0.5;stroke-opacity:1"
        d="M 203.293787,251.275515 C 196.823312,275.423661 196.823312,275.423661 190.352837,299.571807 196.823312,275.423661 196.823312,275.423661 203.293787,251.275515 Z" />
     <path
        id="Branch_51"
        style="opacity:1.0;fill:#00FF00;stroke:#000000;stroke-width:0.5;stroke-opacity:1"
        d="M 193.976303,286.048845 C 176.298634,303.726516 176.298634,303.726516 158.620965,321.404186 176.298634,303.726516 176.298634,303.726516 193.976303,286.048845 Z" />
     <path
        id="Branch_52"
        style="opacity:1.0;fill:#00FF00;stroke:#000000;stroke-width:0.5;stroke-opacity:1"
        d="M 182.662595,297.362554 C 158.514449,303.833032 158.514449,303.833032 134.366304,310.303509 158.514449,303.833032 158.514449,303.833032 182.662595,297.362554 Z" />
     <path
        id="Branch_53"
        style="opacity:1.0;fill:#00FF00;stroke:#000000;stroke-width:0.5;stroke-opacity:1"
        d="M 158.514449,303.833032 C 140.836781,321.510702 140.836781,321.510702 123.159112,339.188372 140.836781,321.510702 140.836781,321.510702 158.514449,303.833032 Z" />
     <path
        id="Branch_54"
        style="opacity:1.0;fill:#00FF00;stroke:#000000;stroke-width:0.5;stroke-opacity:1"
        d="M 247.411809,240.340742 C 240.941331,216.192597 240.941331,216.192597 234.470853,192.044452 240.941331,216.192597 240.941331,216.192597 247.411809,240.340742 Z" />
     <path
        id="Branch_55"
        style="opacity:1.0;fill:#00FF00;stroke:#000000;stroke-width:0.5;stroke-opacity:1"
        d="M 245.858894,234.545187 C 228.181223,216.867519 228.181223,216.867519 210.503553,199.189850 228.181223,216.867519 228.181223,216.867519 245.858894,234.545187 Z" />
     <path
        id="Branch_56"
        style="opacity:1.0;fill:#00FF00;stroke:#000000;stroke-width:0.5;stroke-opacity:1"
        d="M 240.909146,229.595440 C 234.438668,205.447295 234.438668,205.447295 227.968190,181.299150 234.438668,205.447295 234.438668,205.447295 240.909146,229.595440 Z" />
     <path
        id="Branch_57"
        style="opacity:1.0;fill:#00FF00;stroke:#000000;stroke-width:0.5;stroke-opacity:1"
        d="M 238.838593,221.868034 C 221.160923,204.190365 221.160923,204.190365 203.483252,186.512697 221.160923,204.190365 221.160923,204.190365 238.838593,221.868034 Z" />
     <path
        id="Branch_58"
        style="opacity:1.0;fill:#00FF00;stroke:#000000;stroke-width:0.5;stroke-opacity:1"
        d="M 231.767525,214.796966 C 207.619379,208.326491 207.619379,208.326491 183.471233,201.856017 207.619379,208.326491 207.619379,208.326491 231.767525,214.796966 Z" />
     <path
        id="Branch_59"
        style="opacity:1.0;fill:#00FF00;stroke:#000000;stroke-width:0.5;stroke-opacity:1"
        d="M 220.176415,211.691138 C 196.028270,218.161616 196.028270,218.161616 171.880124,224.632093 196.028270,218.161616 196.028270,218.161616 220.176415,211.691138 Z" />
     <path
        id="Branch_60"
        style="opacity:1.0;fill:#00FF00;stroke:#000000;stroke-width:0.5;stroke-opacity:1"
        d="M 196.994195,217.902797 C 172.846049,211.432322 172.846049,211.432322 148.697903,204.961847 172.846049,211.432322 172.846049,211.432322 196.994195,217.902797 Z" />
     <path
        id="Branch_61"
        style="opacity:1.0;fill:#00FF00;stroke:#000000;stroke-width:0.5;stroke-opacity:1"
        d="M 172.846049,211.432322 C 148.697904,217.902799 148.697904,217.902799 124.549759,224.373276 148.697904,217.902799 148.697904,217.902799 172.846049,211.432322 Z" />
     <path
        id="Branch_62"
        style="opacity:1.0;fill:#00FF00;stroke:#000000;stroke-width:0.5;stroke-opacity:1"
        d="M 252.588190,240.340742 C 259.058664,216.192595 259.058664,216.192595 265.529138,192.044449 259.058664,216.192595 259.058664,216.192595 252.588190,240.340742 Z" />
     <path
        id="Branch_63"
        style="opacity:1.0;fill:#00FF00;stroke:#000000;stroke-width:0.5;stroke-opacity:1"
        d="M 254.141103,234.545186 C 247.670625,210.397041 247.670625,210.397041 241.200147,186.248896 247.670625,210.397041 247.670625,210.397041 254.141103,234.545186 Z" />
     <path
        id="Branch_64"
        style="opacity:1.0;fill:#00FF00;stroke:#000000;stroke-width:0.5;stroke-opacity:1"
        d="M 250.517636,221.022225 C 256.988110,196.874079 256.988110,196.874079 263.458584,172.725933 256.988110,196.874079 256.988110,196.874079 250.517636,221.022225 Z" />
     <path
        id="Branch_65"
        style="opacity:1.0;fill:#00FF00;stroke:#000000;stroke-width:0.5;stroke-opacity:1"
        d="M 252.588187,213.294818 C 246.117709,189.146673 246.117709,189.146673 239.647232,164.998528 246.117709,189.146673 246.117709,189.146673 252.588187,213.294818 Z" />
     <path
        id="Branch_66"
        style="opacity:1.0;fill:#00FF00;stroke:#000000;stroke-width:0.5;stroke-opacity:1"
        d="M 249.999996,203.635560 C 256.470470,179.487414 256.470470,179.487414 262.940944,155.339268 256.470470,179.487414 256.470470,179.487414 249.999996,203.635560 Z" />
     <path
        id="Branch_67"
        style="opacity:1.0;fill:#00FF00;stroke:#000000;stroke-width:0.5;stroke-opacity:1"
        d="M 259.317479,168.862230 C 276.995147,151.184559 276.995147,151.184559 294.672815,133.506887 276.995147,151.184559 276.995147,151.184559 259.317479,168.862230 Z" />
     <path
        id="Branch_68"
        style="opacity:1.0;fill:#00FF00;stroke:#000000;stroke-width:0.5;stroke-opacity:1"
        d="M 270.631186,157.548520 C 277.101660,133.400374 277.101660,133.400374 283.572135,109.252228 277.101660,133.400374 277.101660,133.400374 270.631186,157.548520 Z" />
     <path
        id="Branch_69"
        style="opacity:1.0;fill:#00FF00;stroke:#000000;stroke-width:0.5;stroke-opacity:1"
        d="M 277.101660,133.400374 C 294.779328,115.722703 294.779328,115.722703 312.456996,98.045032 294.779328,115.722703 294.779328,115.722703 277.101660,133.400374 Z" />
     <path
        id="Branch_70"
        style="opacity:1.0;fill:#00FF00;stroke:#000000;stroke-width:0.5;stroke-opacity:1"
        d="M 257.071067,242.928932 C 274.748735,225.251260 274.748735,225.251260 292.426403,207.573589 274.748735,225.251260 274.748735,225.251260 257.071067,242.928932 Z" />
     <path
        id="Branch_71"
        style="opacity:1.0;fill:#00FF00;stroke:#000000;stroke-width:0.5;stroke-opacity:1"
        d="M 274.041628,225.958367 C 298.189773,219.487889 298.189773,219.487889 322.337918,213.017410 298.189773,219.487889 298.189773,219.487889 274.041628,225.958367 Z" />
     <path
        id="Branch_72"
        style="opacity:1.0;fill:#00FF00;stroke:#000000;stroke-width:0.5;stroke-opacity:1"
        d="M 294.326070,220.523165 C 312.003738,202.845494 312.003738,202.845494 329.681406,185.167823 312.003738,202.845494 312.003738,202.845494 294.326070,220.523165 Z" />
     <path
        id="Branch_73"
        style="opacity:1.0;fill:#00FF00;stroke:#000000;stroke-width:0.5;stroke-opacity:1"
        d="M 299.982924,214.866310 C 324.131069,208.395832 324.131069,208.395832 348.279214,201.925353 324.131069,208.395832 324.131069,208.395832 299.982924,214.866310 Z" />
     <path
        id="Branch_74"
        style="opacity:1.0;fill:#00FF00;stroke:#000000;stroke-width:0.5;stroke-opacity:1"
        d="M 309.642182,212.278119 C 327.319850,194.600448 327.319850,194.600448 344.997518,176.922777 327.319850,194.600448 327.319850,194.600448 309.642182,212.278119 Z" />
     <path
        id="Branch_75"
        style="opacity:1.0;fill:#00FF00;stroke:#000000;stroke-width:0.5;stroke-opacity:1"
        d="M 326.612743,195.307555 C 333.083217,171.159408 333.083217,171.159408 339.553691,147.011262 333.083217,171.159408 333.083217,171.159408 326.612743,195.307555 Z" />
     <path
        id="Branch_76"
        style="opacity:1.0;fill:#00FF00;stroke:#000000;stroke-width:0.5;stroke-opacity:1"
        d="M 334.894950,164.397927 C 352.572618,146.720256 352.572618,146.720256 370.250286,129.042585 352.572618,146.720256 352.572618,146.720256 334.894950,164.397927 Z" />
     <path
        id="Branch_77"
        style="opacity:1.0;fill:#00FF00;stroke:#000000;stroke-width:0.5;stroke-opacity:1"
        d="M 352.572618,146.720256 C 359.043092,122.572110 359.043092,122.572110 365.513566,98.423964 359.043092,122.572110 359.043092,122.572110 352.572618,146.720256 Z" />
     <path
        id="Branch_78"
        style="opacity:1.0;fill:#00FF00;stroke:#000000;stroke-width:0.5;stroke-opacity:1"
        d="M 259.659258,247.411809 C 283.807403,240.941330 283.807403,240.941330 307.955548,234.470851 283.807403,240.941330 283.807403,240.941330 259.659258,247.411809 Z" />

     <use 
        x="0"
        y="0"
        xlink:href="#Leaf_Original"
        id="Clone_Leaf_Original_0"
        transform="matrix( 0.965926 0.258819 -0.258819 0.965926 302.159995 260.352762 )"
        width="100%"
        height="100%" />
     <use 
        x="0"
        y="0"
        xlink:href="#Leaf_Original"
        id="Clone_Leaf_Original_1"
        transform="matrix( 0.965926 0.258819 -0.258819 0.965926 308.921475 258.541028 )"
        width="100%"
        height="100%" />
     <use 
        x="0"
        y="0"
        xlink:href="#Leaf_Original"
        id="Clone_Leaf_Original_2"
        transform="matrix( 0.965926 0.258819 -0.258819 0.965926 363.979248 269.670247 )"
        width="100%"
        height="100%" />
     <use 
        x="0"
        y="0"
        xlink:href="#Leaf_Original"
        id="Clone_Leaf_Original_3"
        transform="matrix( 0.965926 -0.258819 0.258819 0.965926 371.706654 232.917943 )"
        width="100%"
        height="100%" />
     <use 
        x="0"
        y="0"
        xlink:href="#Leaf_Original"
        id="Clone_Leaf_Original_4"
        transform="matrix( 0.965926 -0.258819 0.258819 0.965926 350.040184 226.300142 )"
        width="100%"
        height="100%" />
     <use 
        x="0"
        y="0"
        xlink:href="#Leaf_Original"
        id="Clone_Leaf_Original_5"
        transform="matrix( 0.965926 -0.258819 0.258819 0.965926 358.525466 217.814861 )"
        width="100%"
        height="100%" />
     <use 
        x="0"
        y="0"
        xlink:href="#Leaf_Original"
        id="Clone_Leaf_Original_6"
        transform="matrix( 0.258819 -0.965926 0.965926 0.258819 329.534088 211.450900 )"
        width="100%"
        height="100%" />
     <use 
        x="0"
        y="0"
        xlink:href="#Leaf_Original"
        id="Clone_Leaf_Original_7"
        transform="matrix( 0.965926 -0.258819 0.258819 0.965926 392.679621 219.016045 )"
        width="100%"
        height="100%" />
     <use 
        x="0"
        y="0"
        xlink:href="#Leaf_Original"
        id="Clone_Leaf_Original_8"
        transform="matrix( 0.965926 0.258819 -0.258819 0.965926 408.134434 253.697796 )"
        width="100%"
        height="100%" />
     <use 
        x="0"
        y="0"
        xlink:href="#Leaf_Original"
        id="Clone_Leaf_Original_9"
        transform="matrix( 0.965926 -0.258819 0.258819 0.965926 432.282580 221.345416 )"
        width="100%"
        height="100%" />
     <use 
        x="0"
        y="0"
        xlink:href="#Leaf_Original"
        id="Clone_Leaf_Original_10"
        transform="matrix( 0.258819 0.965926 -0.965926 0.258819 289.210420 342.243426 )"
        width="100%"
        height="100%" />
     <use 
        x="0"
        y="0"
        xlink:href="#Leaf_Original"
        id="Clone_Leaf_Original_11"
        transform="matrix( 0.707107 0.707107 -0.707107 0.707107 289.288393 294.238140 )"
        width="100%"
        height="100%" />
     <use 
        x="0"
        y="0"
        xlink:href="#Leaf_Original"
        id="Clone_Leaf_Original_12"
        transform="matrix( 0.707107 0.707107 -0.707107 0.707107 291.100127 300.999620 )"
        width="100%"
        height="100%" />
     <use 
        x="0"
        y="0"
        xlink:href="#Leaf_Original"
        id="Clone_Leaf_Original_13"
        transform="matrix( 0.258819 0.965926 -0.965926 0.258819 287.361522 319.888432 )"
        width="100%"
        height="100%" />
     <use 
        x="0"
        y="0"
        xlink:href="#Leaf_Original"
        id="Clone_Leaf_Original_14"
        transform="matrix( 0.965926 0.258819 -0.258819 0.965926 358.992336 320.808568 )"
        width="100%"
        height="100%" />
     <use 
        x="0"
        y="0"
        xlink:href="#Leaf_Original"
        id="Clone_Leaf_Original_15"
        transform="matrix( 0.707107 0.707107 -0.707107 0.707107 349.240167 357.018338 )"
        width="100%"
        height="100%" />
     <use 
        x="0"
        y="0"
        xlink:href="#Leaf_Original"
        id="Clone_Leaf_Original_16"
        transform="matrix( 0.965926 0.258819 -0.258819 0.965926 328.840585 318.941088 )"
        width="100%"
        height="100%" />
     <use 
        x="0"
        y="0"
        xlink:href="#Leaf_Original"
        id="Clone_Leaf_Original_17"
        transform="matrix( 0.258819 0.965926 -0.965926 0.258819 341.074432 401.885611 )"
        width="100%"
        height="100%" />
     <use 
        x="0"
        y="0"
        xlink:href="#Leaf_Original"
        id="Clone_Leaf_Original_18"
        transform="matrix( -0.258819 0.965926 -0.965926 -0.258819 306.392681 417.340425 )"
        width="100%"
        height="100%" />
     <use 
        x="0"
        y="0"
        xlink:href="#Leaf_Original"
        id="Clone_Leaf_Original_19"
        transform="matrix( 0.258819 0.965926 -0.965926 0.258819 338.745062 441.488570 )"
        width="100%"
        height="100%" />
     <use 
        x="0"
        y="0"
        xlink:href="#Leaf_Original"
        id="Clone_Leaf_Original_20"
        transform="matrix( 0.707107 0.707107 -0.707107 0.707107 274.924604 294.723592 )"
        width="100%"
        height="100%" />
     <use 
        x="0"
        y="0"
        xlink:href="#Leaf_Original"
        id="Clone_Leaf_Original_21"
        transform="matrix( -0.707107 0.707107 -0.707107 -0.707107 203.955109 342.635969 )"
        width="100%"
        height="100%" />
     <use 
        x="0"
        y="0"
        xlink:href="#Leaf_Original"
        id="Clone_Leaf_Original_22"
        transform="matrix( -0.965926 0.258819 -0.258819 -0.965926 167.813354 332.815785 )"
        width="100%"
        height="100%" />
     <use 
        x="0"
        y="0"
        xlink:href="#Leaf_Original"
        id="Clone_Leaf_Original_23"
        transform="matrix( -0.965926 -0.258819 0.258819 -0.965926 152.358539 298.134035 )"
        width="100%"
        height="100%" />
     <use 
        x="0"
        y="0"
        xlink:href="#Leaf_Original"
        id="Clone_Leaf_Original_24"
        transform="matrix( -0.707107 0.707107 -0.707107 -0.707107 228.181227 283.132484 )"
        width="100%"
        height="100%" />
     <use 
        x="0"
        y="0"
        xlink:href="#Leaf_Original"
        id="Clone_Leaf_Original_25"
        transform="matrix( 0.258819 0.965926 -0.965926 0.258819 263.458593 358.183692 )"
        width="100%"
        height="100%" />
     <use 
        x="0"
        y="0"
        xlink:href="#Leaf_Original"
        id="Clone_Leaf_Original_26"
        transform="matrix( 0.707107 0.707107 -0.707107 0.707107 264.313023 313.076183 )"
        width="100%"
        height="100%" />
     <use 
        x="0"
        y="0"
        xlink:href="#Leaf_Original"
        id="Clone_Leaf_Original_27"
        transform="matrix( 0.707107 0.707107 -0.707107 0.707107 266.901214 322.735441 )"
        width="100%"
        height="100%" />
     <use 
        x="0"
        y="0"
        xlink:href="#Leaf_Original"
        id="Clone_Leaf_Original_28"
        transform="matrix( -0.707107 0.707107 -0.707107 -0.707107 194.637624 383.204854 )"
        width="100%"
        height="100%" />
     <use 
        x="0"
        y="0"
        xlink:href="#Leaf_Original"
        id="Clone_Leaf_Original_29"
        transform="matrix( -0.258819 0.965926 -0.965926 -0.258819 216.945497 413.929990 )"
        width="100%"
        height="100%" />
     <use 
        x="0"
        y="0"
        xlink:href="#Leaf_Original"
        id="Clone_Leaf_Original_30"
        transform="matrix( -0.258819 0.965926 -0.965926 -0.258819 201.199677 346.883589 )"
        width="100%"
        height="100%" />
     <use 
        x="0"
        y="0"
        xlink:href="#Leaf_Original"
        id="Clone_Leaf_Original_31"
        transform="matrix( -0.258819 0.965926 -0.965926 -0.258819 204.046688 407.736916 )"
        width="100%"
        height="100%" />
     <use 
        x="0"
        y="0"
        xlink:href="#Leaf_Original"
        id="Clone_Leaf_Original_32"
        transform="matrix( -0.965926 -0.258819 0.258819 -0.965926 210.397041 247.670631 )"
        width="100%"
        height="100%" />
     <use 
        x="0"
        y="0"
        xlink:href="#Leaf_Original"
        id="Clone_Leaf_Original_33"
        transform="matrix( -0.965926 0.258819 -0.258819 -0.965926 162.100751 265.270328 )"
        width="100%"
        height="100%" />
     <use 
        x="0"
        y="0"
        xlink:href="#Leaf_Original"
        id="Clone_Leaf_Original_34"
        transform="matrix( -0.707107 0.707107 -0.707107 -0.707107 174.750699 300.703641 )"
        width="100%"
        height="100%" />
     <use 
        x="0"
        y="0"
        xlink:href="#Leaf_Original"
        id="Clone_Leaf_Original_35"
        transform="matrix( -0.258819 0.965926 -0.965926 -0.258819 197.058572 331.428776 )"
        width="100%"
        height="100%" />
     <use 
        x="0"
        y="0"
        xlink:href="#Leaf_Original"
        id="Clone_Leaf_Original_36"
        transform="matrix( -0.707107 -0.707107 0.707107 -0.707107 214.247139 219.196891 )"
        width="100%"
        height="100%" />
     <use 
        x="0"
        y="0"
        xlink:href="#Leaf_Original"
        id="Clone_Leaf_Original_37"
        transform="matrix( -0.965926 0.258819 -0.258819 -0.965926 152.718893 254.474258 )"
        width="100%"
        height="100%" />
     <use 
        x="0"
        y="0"
        xlink:href="#Leaf_Original"
        id="Clone_Leaf_Original_38"
        transform="matrix( -0.707107 0.707107 -0.707107 -0.707107 179.404462 292.135406 )"
        width="100%"
        height="100%" />
     <use 
        x="0"
        y="0"
        xlink:href="#Leaf_Original"
        id="Clone_Leaf_Original_39"
        transform="matrix( -0.707107 0.707107 -0.707107 -0.707107 140.943296 339.081856 )"
        width="100%"
        height="100%" />
     <use 
        x="0"
        y="0"
        xlink:href="#Leaf_Original"
        id="Clone_Leaf_Original_40"
        transform="matrix( -0.965926 0.258819 -0.258819 -0.965926 110.218159 316.773986 )"
        width="100%"
        height="100%" />
     <use 
        x="0"
        y="0"
        xlink:href="#Leaf_Original"
        id="Clone_Leaf_Original_41"
        transform="matrix( -0.707107 0.707107 -0.707107 -0.707107 105.481443 356.866042 )"
        width="100%"
        height="100%" />
     <use 
        x="0"
        y="0"
        xlink:href="#Leaf_Original"
        id="Clone_Leaf_Original_42"
        transform="matrix( -0.707107 -0.707107 0.707107 -0.707107 192.825882 181.512182 )"
        width="100%"
        height="100%" />
     <use 
        x="0"
        y="0"
        xlink:href="#Leaf_Original"
        id="Clone_Leaf_Original_43"
        transform="matrix( -0.258819 -0.965926 0.965926 -0.258819 221.497712 157.151004 )"
        width="100%"
        height="100%" />
     <use 
        x="0"
        y="0"
        xlink:href="#Leaf_Original"
        id="Clone_Leaf_Original_44"
        transform="matrix( -0.707107 -0.707107 0.707107 -0.707107 185.805581 168.835028 )"
        width="100%"
        height="100%" />
     <use 
        x="0"
        y="0"
        xlink:href="#Leaf_Original"
        id="Clone_Leaf_Original_45"
        transform="matrix( -0.965926 -0.258819 0.258819 -0.965926 159.323087 195.385542 )"
        width="100%"
        height="100%" />
     <use 
        x="0"
        y="0"
        xlink:href="#Leaf_Original"
        id="Clone_Leaf_Original_46"
        transform="matrix( -0.965926 0.258819 -0.258819 -0.965926 147.731979 231.102570 )"
        width="100%"
        height="100%" />
     <use 
        x="0"
        y="0"
        xlink:href="#Leaf_Original"
        id="Clone_Leaf_Original_47"
        transform="matrix( -0.707107 0.707107 -0.707107 -0.707107 187.043933 233.509914 )"
        width="100%"
        height="100%" />
     <use 
        x="0"
        y="0"
        xlink:href="#Leaf_Original"
        id="Clone_Leaf_Original_48"
        transform="matrix( -0.965926 -0.258819 0.258819 -0.965926 124.549757 198.491372 )"
        width="100%"
        height="100%" />
     <use 
        x="0"
        y="0"
        xlink:href="#Leaf_Original"
        id="Clone_Leaf_Original_49"
        transform="matrix( -0.965926 0.258819 -0.258819 -0.965926 100.401613 230.843754 )"
        width="100%"
        height="100%" />
     <use 
        x="0"
        y="0"
        xlink:href="#Leaf_Original"
        id="Clone_Leaf_Original_50"
        transform="matrix( -0.258819 -0.965926 0.965926 -0.258819 234.729670 162.100751 )"
        width="100%"
        height="100%" />
     <use 
        x="0"
        y="0"
        xlink:href="#Leaf_Original"
        id="Clone_Leaf_Original_51"
        transform="matrix( -0.707107 -0.707107 0.707107 -0.707107 234.651699 210.106037 )"
        width="100%"
        height="100%" />
     <use 
        x="0"
        y="0"
        xlink:href="#Leaf_Original"
        id="Clone_Leaf_Original_52"
        transform="matrix( 0.258819 -0.965926 0.965926 0.258819 269.929058 148.577787 )"
        width="100%"
        height="100%" />
     <use 
        x="0"
        y="0"
        xlink:href="#Leaf_Original"
        id="Clone_Leaf_Original_53"
        transform="matrix( -0.258819 -0.965926 0.965926 -0.258819 233.176754 140.850383 )"
        width="100%"
        height="100%" />
     <use 
        x="0"
        y="0"
        xlink:href="#Leaf_Original"
        id="Clone_Leaf_Original_54"
        transform="matrix( 0.258819 -0.965926 0.965926 0.258819 269.411419 131.191122 )"
        width="100%"
        height="100%" />
     <use 
        x="0"
        y="0"
        xlink:href="#Leaf_Original"
        id="Clone_Leaf_Original_55"
        transform="matrix( 0.707107 -0.707107 0.707107 0.707107 270.783492 174.366779 )"
        width="100%"
        height="100%" />
     <use 
        x="0"
        y="0"
        xlink:href="#Leaf_Original"
        id="Clone_Leaf_Original_56"
        transform="matrix( -0.258819 -0.965926 0.965926 -0.258819 249.741173 156.305195 )"
        width="100%"
        height="100%" />
     <use 
        x="0"
        y="0"
        xlink:href="#Leaf_Original"
        id="Clone_Leaf_Original_57"
        transform="matrix( 0.707107 -0.707107 0.707107 0.707107 312.350483 115.829216 )"
        width="100%"
        height="100%" />
     <use 
        x="0"
        y="0"
        xlink:href="#Leaf_Original"
        id="Clone_Leaf_Original_58"
        transform="matrix( 0.258819 -0.965926 0.965926 0.258819 277.101660 133.400374 )"
        width="100%"
        height="100%" />
     <use 
        x="0"
        y="0"
        xlink:href="#Leaf_Original"
        id="Clone_Leaf_Original_59"
        transform="matrix( 0.258819 -0.965926 0.965926 0.258819 288.415368 122.086664 )"
        width="100%"
        height="100%" />
     <use 
        x="0"
        y="0"
        xlink:href="#Leaf_Original"
        id="Clone_Leaf_Original_60"
        transform="matrix( 0.965926 -0.258819 0.258819 0.965926 297.607758 148.249614 )"
        width="100%"
        height="100%" />
     <use 
        x="0"
        y="0"
        xlink:href="#Leaf_Original"
        id="Clone_Leaf_Original_61"
        transform="matrix( 0.258819 -0.965926 0.965926 0.258819 290.042609 85.104082 )"
        width="100%"
        height="100%" />
     <use 
        x="0"
        y="0"
        xlink:href="#Leaf_Original"
        id="Clone_Leaf_Original_62"
        transform="matrix( 0.707107 -0.707107 0.707107 0.707107 330.134664 80.367360 )"
        width="100%"
        height="100%" />
     <use 
        x="0"
        y="0"
        xlink:href="#Leaf_Original"
        id="Clone_Leaf_Original_63"
        transform="matrix( 0.258819 -0.965926 0.965926 0.258819 267.784182 214.538144 )"
        width="100%"
        height="100%" />
     <use 
        x="0"
        y="0"
        xlink:href="#Leaf_Original"
        id="Clone_Leaf_Original_64"
        transform="matrix( 0.258819 -0.965926 0.965926 0.258819 272.026822 210.295503 )"
        width="100%"
        height="100%" />
     <use 
        x="0"
        y="0"
        xlink:href="#Leaf_Original"
        id="Clone_Leaf_Original_65"
        transform="matrix( 0.965926 -0.258819 0.258819 0.965926 293.947133 223.730530 )"
        width="100%"
        height="100%" />
     <use 
        x="0"
        y="0"
        xlink:href="#Leaf_Original"
        id="Clone_Leaf_Original_66"
        transform="matrix( 0.707107 -0.707107 0.707107 0.707107 298.480777 206.468962 )"
        width="100%"
        height="100%" />
     <use 
        x="0"
        y="0"
        xlink:href="#Leaf_Original"
        id="Clone_Leaf_Original_67"
        transform="matrix( 0.707107 -0.707107 0.707107 0.707107 305.242257 204.657228 )"
        width="100%"
        height="100%" />
     <use 
        x="0"
        y="0"
        xlink:href="#Leaf_Original"
        id="Clone_Leaf_Original_68"
        transform="matrix( 0.707107 -0.707107 0.707107 0.707107 347.359074 167.490152 )"
        width="100%"
        height="100%" />
     <use 
        x="0"
        y="0"
        xlink:href="#Leaf_Original"
        id="Clone_Leaf_Original_69"
        transform="matrix( 0.707107 -0.707107 0.707107 0.707107 362.675185 159.245105 )"
        width="100%"
        height="100%" />
     <use 
        x="0"
        y="0"
        xlink:href="#Leaf_Original"
        id="Clone_Leaf_Original_70"
        transform="matrix( 0.258819 -0.965926 0.965926 0.258819 324.597936 179.644691 )"
        width="100%"
        height="100%" />
     <use 
        x="0"
        y="0"
        xlink:href="#Leaf_Original"
        id="Clone_Leaf_Original_71"
        transform="matrix( 0.258819 -0.965926 0.965926 0.258819 346.024165 122.863116 )"
        width="100%"
        height="100%" />
     <use 
        x="0"
        y="0"
        xlink:href="#Leaf_Original"
        id="Clone_Leaf_Original_72"
        transform="matrix( -0.258819 -0.965926 0.965926 -0.258819 324.283368 155.704596 )"
        width="100%"
        height="100%" />
     <use 
        x="0"
        y="0"
        xlink:href="#Leaf_Original"
        id="Clone_Leaf_Original_73"
        transform="matrix( 0.707107 -0.707107 0.707107 0.707107 387.927953 111.364914 )"
        width="100%"
        height="100%" />
     <use 
        x="0"
        y="0"
        xlink:href="#Leaf_Original"
        id="Clone_Leaf_Original_74"
        transform="matrix( 0.258819 -0.965926 0.965926 0.258819 371.984040 74.275818 )"
        width="100%"
        height="100%" />
     <use 
        x="0"
        y="0"
        xlink:href="#Leaf_Original"
        id="Clone_Leaf_Original_75"
        transform="matrix( 0.965926 0.258819 -0.258819 0.965926 289.602959 252.329367 )"
        width="100%"
        height="100%" />
     <use 
        x="0"
        y="0"
        xlink:href="#Leaf_Original"
        id="Clone_Leaf_Original_76"
        transform="matrix( 0.965926 0.258819 -0.258819 0.965926 295.398514 250.776452 )"
        width="100%"
        height="100%" />
     <use 
        x="0"
        y="0"
        xlink:href="#Leaf_Original"
        id="Clone_Leaf_Original_77"
        transform="matrix( 0.965926 0.258819 -0.258819 0.965926 301.194069 249.223537 )"
        width="100%"
        height="100%" />
     <use 
        x="0"
        y="0"
        xlink:href="#Leaf_Original"
        id="Clone_Leaf_Original_78"
        transform="matrix( 0.965926 0.258819 -0.258819 0.965926 306.989624 247.670623 )"
        width="100%"
        height="100%" />
     <use 
        x="0"
        y="0"
        xlink:href="#Leaf_Original"
        id="Clone_Leaf_Original_79"
        transform="matrix( 0.965926 0.258819 -0.258819 0.965926 312.785178 246.117708 )"
        width="100%"
        height="100%" />
     <use 
        x="0"
        y="0"
        xlink:href="#Leaf_Original"
        id="Clone_Leaf_Original_80"
        transform="matrix( 0.965926 0.258819 -0.258819 0.965926 318.580733 244.564793 )"
        width="100%"
        height="100%" />
  </g>

  <!-- Attention: do not modify this code. -->
</svg>